<svg xmlns="http://www.w3.org/2000/svg" width="114.423" height="43" viewBox="0 0 114.423 43">
  <defs>
    <style>.a,.b{fill:#44258d;}.a{font-size:18px;font-family: 'Poppins', sans-serif;font-weight:600;}</style>
  </defs>
  <g transform="translate(-57 -155)">
    <text class="a" transform="translate(85.423 155)">
      <tspan x="0" y="19">Micro </tspan>
      <tspan x="0" y="37">Structure</tspan>
    </text>
    <g transform="translate(57 165.096)">
      <path class="b" d="M11.25,11.25H22.374V22.691H11.25Z" transform="translate(-5.568 -5.597)" />
      <path class="b" d="M25.056,10.7V8.46H23.427V5.1A1.222,1.222,0,0,0,22.2,3.879h-3.36V2.25H16.6V3.879H14.772V2.25h-2.24V3.879H10.7V2.25H8.46V3.879H5.1A1.222,1.222,0,0,0,3.879,5.1v3.36H2.25V10.7H3.879v1.832H2.25v2.24H3.879v1.832H2.25v2.24H3.879v3.36A1.222,1.222,0,0,0,5.1,23.428h3.36v1.629H10.7V23.428h1.832v1.629h2.24V23.428h1.832v1.629h2.24V23.428h3.36a1.222,1.222,0,0,0,1.222-1.222v-3.36h1.629v-2.24H23.428V14.774h1.629v-2.24H23.428V10.7ZM7.137,7.137H20.169V20.169H7.137Z" transform="translate(-2.25 -2.25)" />
    </g>
  </g>
</svg>